<svg xmlns="http://www.w3.org/2000/svg" viewBox="0 0 100 100">
  <rect width="100" height="100" rx="22" fill="#0a0a0a"/>
  <g transform="translate(50 50) scale(0.62) translate(-50 -50)" fill="#f4f1ec" fill-rule="evenodd">
    <path d="M50,3 C69,3 59.35,29.65 64.85,35.15 C70.35,40.65 97,31 97,50 C97,69 70.35,59.35 64.85,64.85 C59.35,70.35 69,97 50,97 C31,97 40.65,70.35 35.15,64.85 C29.65,59.35 3,69 3,50 C3,31 29.65,40.65 35.15,35.15 C40.65,29.65 31,3 50,3 Z M50,34 a16,16 0 1,0 0.01,0 Z"/>
  </g>
</svg>
