<svg xmlns="http://www.w3.org/2000/svg" viewBox="0 0 723 305" width="723" height="305">
<path d="M 441.67 87.33 L 521.00 162.00 L 521.33 93.00 L 543.33 93.00 L 543.33 210.00 L 464.00 135.33 L 463.67 204.33 L 441.67 204.33 Z M 104.00 90.67 L 114.67 90.67 L 119.33 91.33 L 129.00 94.67 L 137.33 100.00 L 143.33 106.00 L 148.67 114.33 L 131.33 124.33 L 129.00 120.67 L 123.00 114.33 L 120.00 112.33 L 115.33 110.33 L 111.00 109.67 L 104.00 110.33 L 99.33 112.67 L 96.33 116.67 L 95.67 119.33 L 96.33 124.00 L 97.67 126.67 L 101.67 130.67 L 110.00 135.33 L 126.67 141.67 L 135.00 146.33 L 138.00 148.67 L 143.67 154.67 L 146.67 159.67 L 148.67 165.67 L 149.33 170.33 L 148.67 180.67 L 146.33 187.33 L 142.33 193.67 L 137.67 198.33 L 129.67 203.33 L 122.33 206.00 L 114.67 207.33 L 105.67 207.33 L 101.00 206.67 L 94.00 204.67 L 86.67 201.33 L 79.33 196.33 L 75.67 193.00 L 69.33 185.33 L 65.67 179.00 L 66.33 178.00 L 81.67 167.33 L 87.00 175.33 L 93.00 181.67 L 96.67 184.33 L 102.67 187.00 L 109.00 188.00 L 116.33 187.00 L 121.33 184.33 L 125.00 179.33 L 125.67 176.67 L 125.33 170.67 L 123.33 166.33 L 120.33 163.33 L 113.67 159.33 L 96.67 152.67 L 90.00 149.33 L 85.00 146.00 L 79.00 140.33 L 77.33 138.00 L 75.33 134.67 L 73.33 129.00 L 72.67 125.00 L 73.00 116.00 L 75.00 109.33 L 77.67 104.67 L 83.33 98.67 L 86.67 96.33 L 95.67 92.33 Z M 163.67 93.00 L 246.33 93.00 L 246.33 113.00 L 216.67 113.00 L 216.00 113.67 L 216.00 204.33 L 193.67 204.33 L 193.67 113.33 L 163.67 113.00 Z M 574.33 93.00 L 645.00 93.00 L 645.00 111.67 L 596.00 112.00 L 596.33 136.00 L 641.67 136.00 L 641.67 154.33 L 596.00 154.67 L 596.00 185.33 L 645.00 185.67 L 645.00 204.33 L 574.33 204.33 Z" fill="#0a0a0a" fill-rule="evenodd"></path>
<g transform="translate(341.81,147.20) scale(0.7212)"><path d="M 2.11 -94.88 C 4.27 -94.80 6.01 -94.04 7.34 -93.63 C 8.67 -93.22 9.28 -92.80 10.07 -92.39 C 10.86 -91.98 11.40 -91.56 12.06 -91.15 C 12.72 -90.74 13.51 -90.32 14.05 -89.90 C 14.59 -89.48 14.83 -89.08 15.29 -88.66 C 15.75 -88.24 16.33 -87.82 16.79 -87.41 C 17.25 -87.00 17.62 -86.58 18.03 -86.17 C 18.44 -85.76 18.90 -85.34 19.27 -84.93 C 19.64 -84.52 19.94 -84.10 20.27 -83.68 C 20.60 -83.27 20.93 -82.85 21.26 -82.44 C 21.59 -82.03 21.93 -81.62 22.26 -81.20 C 22.59 -80.78 22.96 -80.37 23.25 -79.95 C 23.54 -79.53 23.71 -79.12 24.00 -78.71 C 24.29 -78.30 24.70 -77.88 24.99 -77.47 C 25.28 -77.06 25.49 -76.63 25.74 -76.22 C 25.99 -75.81 26.24 -75.39 26.49 -74.98 C 26.74 -74.57 26.98 -74.16 27.23 -73.74 C 27.48 -73.32 27.73 -72.91 27.98 -72.49 C 28.23 -72.07 28.47 -71.66 28.72 -71.25 C 28.97 -70.84 29.26 -70.43 29.47 -70.01 C 29.68 -69.59 29.76 -69.18 29.97 -68.76 C 30.18 -68.34 30.46 -67.93 30.71 -67.52 C 30.96 -67.11 31.21 -66.69 31.46 -66.28 C 31.71 -65.87 31.96 -65.45 32.21 -65.03 C 32.46 -64.61 32.70 -64.20 32.95 -63.79 C 33.20 -63.38 33.45 -62.96 33.70 -62.55 C 33.95 -62.13 34.19 -61.71 34.44 -61.30 C 34.69 -60.88 34.94 -60.47 35.19 -60.06 C 35.44 -59.65 35.69 -59.23 35.94 -58.82 C 36.19 -58.41 36.39 -57.98 36.68 -57.57 C 36.97 -57.16 37.39 -56.74 37.68 -56.33 C 37.97 -55.92 38.13 -55.51 38.42 -55.09 C 38.71 -54.68 39.09 -54.26 39.42 -53.84 C 39.75 -53.43 40.08 -53.02 40.41 -52.60 C 40.74 -52.19 41.04 -51.77 41.41 -51.35 C 41.78 -50.94 42.28 -50.52 42.65 -50.11 C 43.02 -49.70 43.28 -49.28 43.65 -48.87 C 44.02 -48.45 44.48 -48.03 44.89 -47.62 C 45.30 -47.20 45.72 -46.79 46.13 -46.38 C 46.55 -45.97 46.97 -45.55 47.38 -45.14 C 47.80 -44.73 48.16 -44.30 48.62 -43.89 C 49.07 -43.48 49.66 -43.06 50.11 -42.65 C 50.56 -42.24 50.89 -41.82 51.35 -41.41 C 51.81 -40.99 52.31 -40.57 52.85 -40.16 C 53.39 -39.74 54.01 -39.33 54.59 -38.92 C 55.17 -38.51 55.75 -38.09 56.33 -37.68 C 56.91 -37.27 57.45 -36.84 58.07 -36.43 C 58.69 -36.02 59.40 -35.60 60.06 -35.19 C 60.72 -34.78 61.34 -34.37 62.05 -33.95 C 62.75 -33.54 63.55 -33.12 64.29 -32.70 C 65.04 -32.29 65.82 -31.87 66.52 -31.46 C 67.22 -31.05 67.81 -30.63 68.51 -30.22 C 69.22 -29.80 70.00 -29.38 70.75 -28.97 C 71.50 -28.55 72.28 -28.14 72.99 -27.73 C 73.69 -27.32 74.32 -26.90 74.98 -26.49 C 75.64 -26.07 76.31 -25.65 76.97 -25.24 C 77.63 -24.82 78.38 -24.41 78.96 -24.00 C 79.54 -23.59 79.91 -23.18 80.45 -22.76 C 80.99 -22.35 81.65 -21.93 82.19 -21.51 C 82.73 -21.10 83.18 -20.68 83.68 -20.27 C 84.18 -19.86 84.72 -19.43 85.18 -19.02 C 85.64 -18.61 86.01 -18.19 86.42 -17.78 C 86.83 -17.37 87.29 -16.95 87.66 -16.54 C 88.03 -16.13 88.29 -15.70 88.66 -15.29 C 89.03 -14.88 89.57 -14.46 89.90 -14.05 C 90.23 -13.64 90.40 -13.23 90.65 -12.81 C 90.90 -12.39 91.14 -11.98 91.39 -11.56 C 91.64 -11.14 91.89 -10.73 92.14 -10.32 C 92.39 -9.91 92.68 -9.50 92.89 -9.08 C 93.10 -8.66 93.22 -8.25 93.38 -7.83 C 93.54 -7.42 93.75 -7.00 93.88 -6.59 C 94.00 -6.18 94.00 -5.76 94.13 -5.35 C 94.25 -4.93 94.55 -4.51 94.63 -4.10 C 94.71 -3.68 94.59 -3.27 94.63 -2.86 C 94.67 -2.45 94.80 -2.04 94.88 -1.62 C 94.96 -1.21 95.12 -0.79 95.12 -0.37 C 95.12 0.05 94.92 0.46 94.88 0.87 C 94.84 1.28 94.92 1.69 94.88 2.11 C 94.84 2.52 94.67 2.94 94.63 3.36 C 94.59 3.77 94.71 4.19 94.63 4.60 C 94.55 5.01 94.30 5.42 94.13 5.84 C 93.96 6.25 93.80 6.67 93.63 7.09 C 93.46 7.50 93.29 7.92 93.13 8.33 C 92.97 8.74 92.85 9.16 92.64 9.57 C 92.43 9.98 92.14 10.41 91.89 10.82 C 91.64 11.23 91.40 11.65 91.15 12.06 C 90.90 12.47 90.69 12.89 90.40 13.30 C 90.11 13.71 89.73 14.14 89.40 14.55 C 89.07 14.96 88.78 15.38 88.41 15.79 C 88.04 16.20 87.59 16.63 87.17 17.04 C 86.75 17.45 86.34 17.87 85.92 18.28 C 85.50 18.69 85.14 19.11 84.68 19.52 C 84.23 19.93 83.73 20.36 83.19 20.77 C 82.65 21.18 81.99 21.60 81.45 22.01 C 80.91 22.42 80.53 22.84 79.95 23.25 C 79.37 23.66 78.58 24.09 77.96 24.50 C 77.34 24.91 76.84 25.33 76.22 25.74 C 75.60 26.15 74.93 26.57 74.23 26.98 C 73.53 27.39 72.75 27.82 72.00 28.23 C 71.25 28.64 70.47 29.06 69.76 29.47 C 69.06 29.88 68.47 30.30 67.77 30.71 C 67.06 31.13 66.28 31.55 65.53 31.96 C 64.78 32.38 63.99 32.79 63.29 33.20 C 62.59 33.61 62.00 34.02 61.30 34.44 C 60.59 34.85 59.72 35.27 59.06 35.69 C 58.40 36.10 57.90 36.52 57.32 36.93 C 56.74 37.34 56.16 37.76 55.58 38.17 C 55.00 38.59 54.38 39.01 53.84 39.42 C 53.30 39.84 52.85 40.25 52.35 40.66 C 51.85 41.07 51.36 41.48 50.86 41.90 C 50.36 42.31 49.83 42.73 49.37 43.15 C 48.91 43.56 48.53 43.98 48.12 44.39 C 47.70 44.80 47.30 45.22 46.88 45.63 C 46.47 46.05 46.05 46.47 45.63 46.88 C 45.22 47.30 44.80 47.70 44.39 48.12 C 43.98 48.53 43.52 48.95 43.15 49.37 C 42.78 49.78 42.48 50.20 42.15 50.61 C 41.82 51.02 41.49 51.44 41.16 51.85 C 40.83 52.27 40.49 52.69 40.16 53.10 C 39.83 53.52 39.50 53.93 39.17 54.34 C 38.84 54.75 38.50 55.16 38.17 55.58 C 37.84 55.99 37.47 56.41 37.18 56.83 C 36.89 57.24 36.68 57.66 36.43 58.07 C 36.18 58.48 35.94 58.90 35.69 59.31 C 35.44 59.73 35.19 60.15 34.94 60.56 C 34.69 60.98 34.45 61.39 34.20 61.80 C 33.95 62.21 33.70 62.63 33.45 63.04 C 33.20 63.45 32.95 63.88 32.70 64.29 C 32.45 64.71 32.21 65.12 31.96 65.53 C 31.71 65.94 31.46 66.35 31.21 66.77 C 30.96 67.19 30.67 67.60 30.46 68.02 C 30.25 68.44 30.18 68.85 29.97 69.26 C 29.76 69.67 29.47 70.09 29.22 70.50 C 28.97 70.91 28.73 71.34 28.48 71.75 C 28.23 72.16 27.98 72.58 27.73 72.99 C 27.48 73.40 27.23 73.81 26.98 74.23 C 26.73 74.65 26.49 75.06 26.24 75.48 C 25.99 75.90 25.78 76.31 25.49 76.72 C 25.20 77.13 24.79 77.54 24.50 77.96 C 24.21 78.38 24.04 78.79 23.75 79.21 C 23.46 79.63 23.05 80.03 22.76 80.45 C 22.47 80.87 22.30 81.28 22.01 81.70 C 21.72 82.12 21.34 82.53 21.01 82.94 C 20.68 83.35 20.39 83.77 20.02 84.18 C 19.65 84.60 19.20 85.02 18.78 85.43 C 18.37 85.84 17.95 86.26 17.53 86.67 C 17.12 87.08 16.74 87.50 16.29 87.91 C 15.83 88.32 15.30 88.74 14.80 89.16 C 14.30 89.58 13.88 89.99 13.30 90.40 C 12.72 90.81 12.02 91.22 11.32 91.64 C 10.62 92.06 9.99 92.47 9.08 92.89 C 8.17 93.31 7.67 93.80 5.84 94.13 C 4.01 94.46 0.28 94.96 -1.87 94.88 C -4.03 94.80 -5.76 94.04 -7.09 93.63 C -8.41 93.22 -9.03 92.80 -9.82 92.39 C -10.61 91.98 -11.15 91.56 -11.81 91.15 C -12.47 90.74 -13.26 90.32 -13.80 89.90 C -14.34 89.48 -14.59 89.08 -15.05 88.66 C -15.51 88.24 -16.09 87.82 -16.54 87.41 C -16.99 87.00 -17.37 86.58 -17.78 86.17 C -18.19 85.76 -18.65 85.34 -19.02 84.93 C -19.39 84.52 -19.69 84.10 -20.02 83.68 C -20.35 83.27 -20.68 82.85 -21.01 82.44 C -21.34 82.03 -21.68 81.62 -22.01 81.20 C -22.34 80.78 -22.71 80.37 -23.00 79.95 C -23.29 79.53 -23.46 79.12 -23.75 78.71 C -24.04 78.30 -24.45 77.88 -24.74 77.47 C -25.03 77.06 -25.24 76.63 -25.49 76.22 C -25.74 75.81 -25.99 75.39 -26.24 74.98 C -26.49 74.57 -26.73 74.16 -26.98 73.74 C -27.23 73.32 -27.48 72.91 -27.73 72.49 C -27.98 72.07 -28.23 71.66 -28.48 71.25 C -28.73 70.84 -29.01 70.43 -29.22 70.01 C -29.43 69.59 -29.51 69.18 -29.72 68.76 C -29.93 68.34 -30.21 67.93 -30.46 67.52 C -30.71 67.11 -30.96 66.69 -31.21 66.28 C -31.46 65.87 -31.71 65.45 -31.96 65.03 C -32.21 64.61 -32.45 64.20 -32.70 63.79 C -32.95 63.38 -33.20 62.96 -33.45 62.55 C -33.70 62.13 -33.95 61.71 -34.20 61.30 C -34.45 60.88 -34.69 60.47 -34.94 60.06 C -35.19 59.65 -35.44 59.23 -35.69 58.82 C -35.94 58.41 -36.14 57.98 -36.43 57.57 C -36.72 57.16 -37.14 56.74 -37.43 56.33 C -37.72 55.92 -37.88 55.51 -38.17 55.09 C -38.46 54.68 -38.84 54.26 -39.17 53.84 C -39.50 53.43 -39.83 53.02 -40.16 52.60 C -40.49 52.19 -40.79 51.77 -41.16 51.35 C -41.53 50.94 -42.03 50.52 -42.40 50.11 C -42.77 49.70 -43.03 49.28 -43.40 48.87 C -43.77 48.45 -44.23 48.03 -44.64 47.62 C -45.05 47.20 -45.47 46.79 -45.88 46.38 C -46.30 45.97 -46.72 45.55 -47.13 45.14 C -47.55 44.73 -47.91 44.30 -48.37 43.89 C -48.82 43.48 -49.40 43.06 -49.86 42.65 C -50.32 42.24 -50.65 41.82 -51.11 41.41 C -51.57 40.99 -52.06 40.57 -52.60 40.16 C -53.14 39.74 -53.76 39.33 -54.34 38.92 C -54.92 38.51 -55.50 38.09 -56.08 37.68 C -56.66 37.27 -57.20 36.84 -57.82 36.43 C -58.44 36.02 -59.15 35.60 -59.81 35.19 C -60.47 34.78 -61.09 34.37 -61.80 33.95 C -62.50 33.54 -63.29 33.12 -64.04 32.70 C -64.79 32.29 -65.58 31.87 -66.28 31.46 C -66.98 31.05 -67.57 30.63 -68.27 30.22 C -68.97 29.80 -69.75 29.38 -70.50 28.97 C -71.25 28.55 -72.03 28.14 -72.74 27.73 C -73.44 27.32 -74.07 26.90 -74.73 26.49 C -75.39 26.07 -76.06 25.65 -76.72 25.24 C -77.38 24.82 -78.13 24.41 -78.71 24.00 C -79.29 23.59 -79.66 23.18 -80.20 22.76 C -80.74 22.35 -81.40 21.93 -81.94 21.51 C -82.48 21.10 -82.94 20.68 -83.44 20.27 C -83.94 19.86 -84.48 19.43 -84.93 19.02 C -85.39 18.61 -85.76 18.19 -86.17 17.78 C -86.58 17.37 -87.04 16.95 -87.41 16.54 C -87.78 16.13 -88.04 15.70 -88.41 15.29 C -88.78 14.88 -89.32 14.46 -89.65 14.05 C -89.98 13.64 -90.15 13.23 -90.40 12.81 C -90.65 12.39 -90.90 11.98 -91.15 11.56 C -91.40 11.14 -91.64 10.73 -91.89 10.32 C -92.14 9.91 -92.43 9.50 -92.64 9.08 C -92.85 8.66 -92.97 8.25 -93.13 7.83 C -93.29 7.42 -93.50 7.00 -93.63 6.59 C -93.75 6.18 -93.75 5.76 -93.88 5.35 C -94.00 4.93 -94.30 4.51 -94.38 4.10 C -94.46 3.68 -94.34 3.27 -94.38 2.86 C -94.42 2.45 -94.55 2.04 -94.63 1.62 C -94.71 1.21 -94.88 0.79 -94.88 0.37 C -94.88 -0.05 -94.67 -0.46 -94.63 -0.87 C -94.59 -1.28 -94.67 -1.69 -94.63 -2.11 C -94.59 -2.52 -94.42 -2.94 -94.38 -3.36 C -94.34 -3.77 -94.46 -4.19 -94.38 -4.60 C -94.30 -5.01 -94.05 -5.42 -93.88 -5.84 C -93.71 -6.25 -93.54 -6.67 -93.38 -7.09 C -93.22 -7.50 -93.06 -7.92 -92.89 -8.33 C -92.72 -8.74 -92.60 -9.16 -92.39 -9.57 C -92.18 -9.98 -91.89 -10.41 -91.64 -10.82 C -91.39 -11.23 -91.15 -11.65 -90.90 -12.06 C -90.65 -12.47 -90.44 -12.89 -90.15 -13.30 C -89.86 -13.71 -89.49 -14.14 -89.16 -14.55 C -88.83 -14.96 -88.53 -15.38 -88.16 -15.79 C -87.79 -16.20 -87.34 -16.63 -86.92 -17.04 C -86.50 -17.45 -86.09 -17.87 -85.67 -18.28 C -85.25 -18.69 -84.89 -19.11 -84.43 -19.52 C -83.98 -19.93 -83.48 -20.36 -82.94 -20.77 C -82.40 -21.18 -81.74 -21.60 -81.20 -22.01 C -80.66 -22.42 -80.29 -22.84 -79.71 -23.25 C -79.13 -23.66 -78.34 -24.09 -77.72 -24.50 C -77.10 -24.91 -76.60 -25.33 -75.98 -25.74 C -75.36 -26.15 -74.69 -26.57 -73.99 -26.98 C -73.28 -27.39 -72.50 -27.82 -71.75 -28.23 C -71.00 -28.64 -70.22 -29.06 -69.51 -29.47 C -68.81 -29.88 -68.22 -30.30 -67.52 -30.71 C -66.81 -31.13 -66.03 -31.55 -65.28 -31.96 C -64.53 -32.38 -63.74 -32.79 -63.04 -33.20 C -62.34 -33.61 -61.75 -34.02 -61.05 -34.44 C -60.35 -34.85 -59.48 -35.27 -58.82 -35.69 C -58.16 -36.10 -57.65 -36.52 -57.07 -36.93 C -56.49 -37.34 -55.91 -37.76 -55.33 -38.17 C -54.75 -38.59 -54.13 -39.01 -53.59 -39.42 C -53.05 -39.84 -52.60 -40.25 -52.10 -40.66 C -51.60 -41.07 -51.11 -41.48 -50.61 -41.90 C -50.11 -42.31 -49.58 -42.73 -49.12 -43.15 C -48.66 -43.56 -48.28 -43.98 -47.87 -44.39 C -47.45 -44.80 -47.04 -45.22 -46.63 -45.63 C -46.22 -46.05 -45.80 -46.47 -45.39 -46.88 C -44.98 -47.30 -44.55 -47.70 -44.14 -48.12 C -43.73 -48.53 -43.27 -48.95 -42.90 -49.37 C -42.53 -49.78 -42.23 -50.20 -41.90 -50.61 C -41.57 -51.02 -41.24 -51.44 -40.91 -51.85 C -40.58 -52.27 -40.24 -52.69 -39.91 -53.10 C -39.58 -53.52 -39.25 -53.93 -38.92 -54.34 C -38.59 -54.75 -38.26 -55.16 -37.93 -55.58 C -37.60 -55.99 -37.22 -56.41 -36.93 -56.83 C -36.64 -57.24 -36.43 -57.66 -36.18 -58.07 C -35.93 -58.48 -35.69 -58.90 -35.44 -59.31 C -35.19 -59.73 -34.94 -60.15 -34.69 -60.56 C -34.44 -60.98 -34.20 -61.39 -33.95 -61.80 C -33.70 -62.21 -33.45 -62.63 -33.20 -63.04 C -32.95 -63.45 -32.70 -63.88 -32.45 -64.29 C -32.20 -64.71 -31.96 -65.12 -31.71 -65.53 C -31.46 -65.94 -31.21 -66.35 -30.96 -66.77 C -30.71 -67.19 -30.43 -67.60 -30.22 -68.02 C -30.01 -68.44 -29.93 -68.85 -29.72 -69.26 C -29.51 -69.67 -29.22 -70.09 -28.97 -70.50 C -28.72 -70.91 -28.48 -71.34 -28.23 -71.75 C -27.98 -72.16 -27.73 -72.58 -27.48 -72.99 C -27.23 -73.40 -26.98 -73.81 -26.73 -74.23 C -26.48 -74.65 -26.24 -75.06 -25.99 -75.48 C -25.74 -75.90 -25.53 -76.31 -25.24 -76.72 C -24.95 -77.13 -24.54 -77.54 -24.25 -77.96 C -23.96 -78.38 -23.79 -78.79 -23.50 -79.21 C -23.21 -79.63 -22.80 -80.03 -22.51 -80.45 C -22.22 -80.87 -22.05 -81.28 -21.76 -81.70 C -21.47 -82.12 -21.10 -82.53 -20.77 -82.94 C -20.44 -83.35 -20.14 -83.77 -19.77 -84.18 C -19.40 -84.60 -18.95 -85.02 -18.53 -85.43 C -18.12 -85.84 -17.70 -86.26 -17.28 -86.67 C -16.87 -87.08 -16.49 -87.50 -16.04 -87.91 C -15.58 -88.32 -15.05 -88.74 -14.55 -89.16 C -14.05 -89.58 -13.64 -89.99 -13.06 -90.40 C -12.48 -90.81 -11.78 -91.22 -11.07 -91.64 C -10.37 -92.06 -9.74 -92.47 -8.83 -92.89 C -7.92 -93.31 -7.42 -93.80 -5.60 -94.13 C -3.78 -94.46 -0.05 -94.96 2.11 -94.88 Z M -32 0 a 32 32 0 1 0 64 0 a 32 32 0 1 0 -64 0 Z" fill="#0a0a0a" fill-rule="evenodd"></path></g>
</svg>